<?xml version="1.0" standalone="no"?>
<!DOCTYPE svg PUBLIC "-//W3C//DTD SVG 20010904//EN"
 "http://www.w3.org/TR/2001/REC-SVG-20010904/DTD/svg10.dtd">
<svg version="1.0" xmlns="http://www.w3.org/2000/svg"
 width="16.000000pt" height="16.000000pt" viewBox="0 0 16.000000 16.000000"
 preserveAspectRatio="xMidYMid meet">
<metadata>
Created by potrace 1.11, written by Peter Selinger 2001-2013
</metadata>
<g transform="translate(0.000000,16.000000) scale(0.001176,-0.001176)"
fill="#000000" stroke="none">
<path d="M2 7448 l3 -3323 5055 -1 c4738 -1 5058 -2 5105 -18 28 -9 59 -21 70
-25 11 -5 36 -14 55 -21 19 -7 44 -16 55 -20 22 -10 108 -42 225 -84 41 -15
84 -31 95 -36 59 -23 115 -44 255 -95 85 -31 164 -60 175 -65 18 -8 199 -75
405 -150 41 -15 99 -37 128 -48 28 -11 52 -17 52 -14 0 4 4 2 8 -3 6 -8 107
-48 147 -58 6 -2 19 -8 30 -14 11 -6 35 -14 52 -18 18 -3 35 -11 38 -16 4 -5
15 -9 26 -9 10 0 27 -4 37 -9 23 -12 57 -25 125 -50 31 -12 83 -30 115 -42 56
-21 81 -30 125 -48 12 -6 33 -13 47 -16 14 -4 39 -13 55 -20 35 -14 104 -40
239 -90 55 -20 106 -40 115 -45 9 -4 27 -10 41 -11 14 -2 27 -7 30 -10 3 -3
61 -26 130 -51 69 -26 169 -62 222 -82 53 -20 107 -40 120 -45 30 -12 62 -24
68 -25 15 -4 108 -39 123 -47 12 -7 17 -5 17 5 0 8 -4 16 -8 18 -4 2 -28 32
-52 68 -25 36 -49 69 -53 75 -5 5 -36 51 -71 100 -131 189 -160 230 -165 235
-3 3 -10 12 -16 21 -32 52 -120 175 -127 177 -4 2 -8 8 -8 13 0 6 -5 15 -10
22 -6 7 -33 44 -60 82 -27 39 -53 75 -58 81 -5 5 -15 21 -22 35 -7 13 -16 26
-19 29 -13 9 -221 309 -221 317 0 4 192 8 426 8 418 0 426 0 434 20 4 11 4 32
0 47 -5 14 -6 29 -3 32 3 2 4 29 3 58 -1 66 -1 -3 0 525 1 248 -1 457 -6 464
-4 8 -3 10 5 5 9 -6 10 0 5 20 -4 16 -7 35 -6 44 1 8 1 42 1 75 0 33 0 67 0
75 3 73 1 162 -4 169 -3 5 -1 12 4 15 6 4 6 18 1 35 -4 16 -6 31 -4 34 2 2 4
48 4 103 -1 54 -1 108 -1 119 2 117 1 167 -4 174 -3 5 -1 12 4 15 6 4 6 18 1
35 -4 15 -4 34 0 41 4 7 5 24 1 39 -4 14 -5 40 -1 56 3 17 3 49 -1 72 -3 24
-4 45 -1 48 6 6 3 245 -4 256 -3 5 -2 9 3 9 9 0 8 454 -1 477 -3 8 -1 11 5 8
9 -6 6 21 -6 62 -2 7 0 15 5 18 5 3 5 18 0 34 -4 15 -4 34 0 41 4 7 4 25 0 41
-5 15 -6 30 -3 33 3 2 4 29 3 58 0 29 -1 59 -1 66 0 6 0 70 1 142 1 71 -2 134
-5 140 -3 5 -2 10 3 10 6 0 7 14 2 35 -4 19 -4 37 0 40 5 3 5 18 0 34 -4 15
-4 34 0 41 4 7 4 25 0 41 -5 15 -6 30 -3 33 3 2 4 29 3 58 -1 63 -1 43 0 246
1 89 -2 166 -5 171 -3 6 -1 12 4 15 6 4 6 18 1 35 -4 15 -4 34 0 41 4 7 4 25
0 41 -5 15 -6 30 -3 33 3 2 4 29 3 58 0 29 -1 59 -1 66 0 6 0 70 1 142 1 71
-2 134 -5 140 -3 5 -2 10 3 10 6 0 7 14 2 35 -4 19 -4 37 0 40 5 3 5 18 0 34
-4 15 -4 34 0 41 4 7 4 25 0 41 -5 15 -6 30 -3 33 3 2 4 29 3 58 -1 66 -1 -3
0 525 1 248 -1 457 -6 464 -4 8 -3 10 5 5 9 -6 10 0 5 20 -4 16 -7 35 -6 44 4
43 2 122 -3 130 -3 5 -2 11 2 13 5 3 7 41 5 86 l-4 81 -6779 0 -6779 0 2
-3322z"/>
</g>
</svg>
