<?xml version="1.0" encoding="utf-8"?>
<!-- Generator: Adobe Illustrator 20.1.0, SVG Export Plug-In . SVG Version: 6.00 Build 0)  -->
<svg version="1.1" id="Layer_1" xmlns="http://www.w3.org/2000/svg" xmlns:xlink="http://www.w3.org/1999/xlink" x="0px" y="0px"
	 viewBox="0 0 680.4 397" style="enable-background:new 0 0 680.4 397;" xml:space="preserve">
<style type="text/css">
	.st0{fill:#E9262A;}
	.st1{fill:#221F1F;}
	.st2{fill:#FFFFFF;}
</style>
<g>
	<polygon class="st0" points="0,0 678.4,0 678.4,332.3 634.9,332.3 680.4,397 506.1,332.3 0,332.3 	"/>
	<g>
		<path class="st1" d="M246.1,99.9l-15.8,20.7h-10.3l2.3,3.7L206.6,145h-11.7V84.9l15.8-20.7h39.6v10.5l-12.2,16l8.1-1.3V99.9z"/>
	</g>
	<g>
		<path class="st1" d="M331.5,145l-10.9-16.9L307.7,145h-11.7V84.9l15.8-20.7L330,91l0.2-6.1L346,64.2h11.7v60.1L341.9,145H331.5z"
			/>
	</g>
	<g>
		<path class="st1" d="M469.7,124.3L454,145h-11.7V95.3h-15.7V84.9l15.8-20.7h43.1v10.5l-15.8,20.7L469.7,124.3z"/>
	</g>
	<g>
		<path class="st1" d="M511.3,145v-25.2h-4.8l0.2,4.5L490.9,145h-11.7V84.9L495,64.2h11.7v24.6l4.6,2.2v-6.2L527,64.2h11.7v60.1
			L523,145H511.3z"/>
	</g>
	<g>
		<path class="st1" d="M537,145V84.9l15.8-20.7h39.6v10.5l-11.5,15.1l7.4-1v10.5l-12.7,16.6l16.8-2v10.5L576.6,145H537z"/>
	</g>
	<g>
		<g>
			<path class="st1" d="M167.7,267.3h-13.8l-15.6-51.6l0.1,30.9l-15.8,20.7h-13.8l-22.7-85l15.8-20.7h17.3l-8.1,20.1l16.8,15.2
				l4.2-14.6l15.8-20.7h12.4l-6.8,20.9l16.6,12.8l3.2-13.1l15.8-20.7h17.3l-15.8,20.7l-7,64.3L167.7,267.3z"/>
		</g>
		<g>
			<path class="st1" d="M201.1,267.3v-85l15.8-20.7h16.6v85l-15.8,20.7H201.1z"/>
		</g>
		<g>
			<path class="st1" d="M287.8,267.3l-19.3-29.9l1.4,9.3l-15.8,20.7h-16.6v-85l15.8-20.7h14.8l17.9,30.9v-10.2l15.8-20.7h16.6v85
				l-15.8,20.7H287.8z"/>
		</g>
		<g>
			<path class="st1" d="M375.5,259.2c-5.6,5.6-13.6,8.1-22.4,8.1h-30.7v-85l15.8-20.7l14.9,7.1c8.8,0,22,3.3,27.6,8.9
				c9.5,9.5,21.4,39.2,16.8,51.1C392.7,241.2,385,249.7,375.5,259.2z M363.9,202.4c-2.9-3.5-6.7-5.3-12.4-5.3h-8.2v43.7h8.2
				c5.7,0,9.5-1.8,12.4-5.3c3.1-3.8,3.6,1.7,3.6-11.1C367.5,211.6,367,206.2,363.9,202.4z"/>
		</g>
		<g>
			<path class="st1" d="M452.5,258.7c-6,6-13.2,9.3-22.9,9.3s-17.1-3.3-23-9.3c-8.6-8.6-8.4-19.2-8.4-33.9c0-12.8-0.2-22.5,5.4-30.5
				c0.5-0.7,8.2-13.4,18-23.4c5.9-6.1,14.5-10,23.7-10c9.7,0,10.5,7.6,16.5,13.6c8.6,8.6,16.2,42,11.7,55.9
				C470.9,238.5,461.1,250.1,452.5,258.7z M440.2,201c-2.4-2.7-6.1-4.5-10.6-4.5s-7.3,12.1-7.3,28.4s17.9,9.2,17.9,9.2
				s4.2,7.2,4.2-9.2S443.4,204.5,440.2,201z"/>
		</g>
	</g>
	<g>
		<path class="st1" d="M393.4,139.2c-4,4-9.6,5.7-15.9,5.7h-21.7V84.9l15.8-20.7l11.8,5c6.2,0,17.4,0.4,21.4,4.4
			c6.8,6.8,9.7,37.2,7.6,41.1C410.1,118.9,396.9,135.7,393.4,139.2z"/>
	</g>
	<path class="st2" d="M409.3,118.6c-4,4-9.6,5.7-15.9,5.7h-21.7V64.2h21.7c6.2,0,11.9,1.8,15.9,5.7c6.8,6.8,6.1,15,6.1,24.1
		C415.4,103.1,416,111.8,409.3,118.6z M400.9,78.4c-2-2.4-4.7-3.7-8.8-3.7h-8.9v39.2h8.9c4.1,0,6.8-1.3,8.8-3.7
		c2.2-2.7,2.5-7,2.5-16.1C403.5,84.9,403.1,81.1,400.9,78.4z"/>
	<path class="st2" d="M246.1,89.5v10.5h-23.7v24.4h-11.7V64.2h39.6v10.5h-27.9v14.8H246.1z"/>
	<path class="st2" d="M347.2,124.3l-23.8-36.9v36.9h-11.7V64.2h10.5L346,101V64.2h11.7v60.1H347.2z"/>
	<path class="st2" d="M469.7,74.7v49.6H458V74.7h-15.7V64.2h43.1v10.5H469.7z"/>
	<path class="st2" d="M527,124.3V99.2h-20.3v25.2H495V64.2h11.7v24.6H527V64.2h11.7v60.1H527z"/>
	<path class="st2" d="M552.8,124.3V64.2h39.6v10.5h-27.9v14.1h23.7v10.5h-23.7v14.6h27.9v10.5H552.8z"/>
	<g>
		<path class="st2" d="M183.5,246.7h-13.8L154,195.1l-15.6,51.6h-13.8l-22.7-85h17.3l13.1,53.6l15.5-53.6h12.4l15.5,53.6l13.2-53.6
			h17.3L183.5,246.7z"/>
		<g>
			<path class="st1" d="M549.3,267.3h-13.8l-15.6-51.6l0.1,30.9l-15.8,20.7h-13.8l-22.7-85l15.8-20.7h17.3l-8.1,20.1l16.8,15.2
				l4.2-14.6l15.8-20.7h12.4l-6.8,20.9l16.6,12.8l3.2-13.1l15.8-20.7h17.3l-15.8,20.7l-7,64.3L549.3,267.3z"/>
		</g>
		<path class="st2" d="M565.1,246.7h-13.8l-15.6-51.6L520,246.7h-13.8l-22.7-85h17.3l13.1,53.6l15.5-53.6h12.4l15.5,53.6l13.2-53.6
			h17.3L565.1,246.7z"/>
		<path class="st2" d="M216.9,246.7v-85h16.6v85H216.9z"/>
		<path class="st2" d="M303.5,246.7l-33.7-52.2v52.2h-16.6v-85h14.8l33.7,52v-52h16.6v85H303.5z"/>
		<path class="st2" d="M391.3,238.5c-5.6,5.6-13.6,8.1-22.4,8.1h-30.7v-85h30.7c8.8,0,16.8,2.5,22.4,8.1c9.5,9.5,8.6,21.2,8.6,34
			S400.8,229,391.3,238.5z M379.7,181.7c-2.9-3.5-6.7-5.3-12.4-5.3h-12.5v55.4h12.5c5.7,0,9.5-1.8,12.4-5.3
			c3.1-3.8,3.6-9.9,3.6-22.8C383.3,190.9,382.8,185.6,379.7,181.7z"/>
		<path class="st2" d="M468.3,238.1c-6,6-13.2,9.3-22.9,9.3s-17.1-3.3-23-9.3c-8.6-8.6-8.4-19.2-8.4-33.9c0-14.7-0.2-25.3,8.4-33.9
			c6-6,13.4-9.3,23-9.3s16.9,3.3,22.9,9.3c8.6,8.6,8.5,19.2,8.5,33.9C476.7,218.9,476.9,229.5,468.3,238.1z M456,180.3
			c-2.4-2.7-6.1-4.5-10.6-4.5s-8.4,1.8-10.7,4.5c-3.2,3.6-4.1,7.5-4.1,23.9s0.8,20.3,4.1,23.9c2.4,2.7,6.2,4.5,10.7,4.5
			s8.2-1.8,10.6-4.5c3.2-3.6,4.2-7.5,4.2-23.9S459.2,183.9,456,180.3z"/>
	</g>
	<g>
		<path class="st1" d="M143.7,145V84.9l15.8-20.7L199,74.7l-12.2,16l8.1-1.9v10.5l-15.8,20.7l19.9-6.1v10.5L183.3,145H143.7z"/>
	</g>
	<path class="st2" d="M159.5,124.3V64.2H199v10.5h-27.9v14.1h23.7v10.5h-23.7v14.6H199v10.5H159.5z"/>
	<g>
		<path class="st1" d="M244.7,145V84.9l15.8-20.7h39.6v10.5l-11.8,15.4l7.7-1.3v10.5l-13,17.1l17.2-2.4v10.5L284.3,145H244.7z"/>
	</g>
	<path class="st2" d="M260.5,124.3V64.2h39.6v10.5h-27.9v14.1h23.7v10.5h-23.7v14.6h27.9v10.5H260.5z"/>
	<g>
		<path class="st1" d="M125.6,139.2c-4,4-9.6,5.7-15.9,5.7H88.1V84.9l15.8-20.7l11.8,5c6.2,0,17.4,0.4,21.4,4.4
			c6.8,6.8,9.7,37.2,7.6,41.1C142.3,118.9,129.2,135.7,125.6,139.2z"/>
	</g>
	<path class="st2" d="M141.6,118.6c-4,4-9.6,5.7-15.9,5.7H104V64.2h21.7c6.2,0,11.9,1.8,15.9,5.7c6.8,6.8,6.1,15,6.1,24.1
		C147.6,103.1,148.3,111.8,141.6,118.6z M133.2,78.4c-2-2.4-4.7-3.7-8.8-3.7h-8.9v39.2h8.9c4.1,0,6.8-1.3,8.8-3.7
		c2.2-2.7,2.5-7,2.5-16.1C135.7,84.9,135.4,81.1,133.2,78.4z"/>
</g>
</svg>
