<svg xmlns="http://www.w3.org/2000/svg" viewBox="0 0 96.32 96.32"><defs><style>.cls-1{fill:#333a43;}.cls-2{fill:#292728;}.cls-3{fill:#fff;}</style></defs><title>Asset 1</title><g id="Layer_2" data-name="Layer 2"><g id="Layer_1-2" data-name="Layer 1"><rect class="cls-1" width="96.32" height="96.32"/><path class="cls-2" d="M68.15,58.09c0-6.7-3.19-10.51-7.16-12.61,3.66-1.95,6.38-5.37,6.38-11.37,0-9.34-7.09-15.88-16.9-15.88a17.49,17.49,0,0,0-12.33,4.61l-5,3.73c-4.52,2.59-7.5,7.24-7.65,13.46H35.62l8-6c0-.21,0-.4.06-.6,3.11.48,5.57,2.84,5.57,7,0,.32,0,.63,0,.93h-.44l-8,6v8.8h1.48c5,0,7.79,3,7.79,7.63a10.55,10.55,0,0,1-.13,1.68c-3.68-.24-6.75-2.51-6.9-7.22H32.87l-8,6c.16,11.6,8.64,16.35,17.67,16.35a18.61,18.61,0,0,0,12.77-4.5l8.06-5.84-.11-.12C66.26,67.41,68.15,63.4,68.15,58.09Z"/><path class="cls-3" d="M50.55,74.59c-9,0-17.52-4.75-17.68-16.35H43c.16,5,3.58,7.24,7.55,7.24,4.36,0,7.48-2.72,7.48-7.71,0-4.59-2.8-7.63-7.79-7.63H48.76v-8.8h1.48c4.91,0,7-3,7-6.93,0-4.67-3.11-7.08-6.77-7.08-3.82,0-6.62,2.49-6.85,6.7H33.5c.23-9.89,7.63-15.81,17-15.81,9.81,0,16.9,6.54,16.9,15.88,0,6-2.73,9.42-6.38,11.37,4,2.1,7.16,5.92,7.16,12.61C68.15,69.14,60,74.59,50.55,74.59Z"/></g></g></svg>