<svg xmlns="http://www.w3.org/2000/svg" viewBox="0 0 96.32 96.32"><defs><style>.cls-1{fill:#333a43;}.cls-2{fill:#292728;}.cls-3{fill:#fff;}</style></defs><title>Asset 2</title><g id="Layer_2" data-name="Layer 2"><g id="Layer_1-2" data-name="Layer 1"><rect class="cls-1" width="96.32" height="96.32"/><path class="cls-2" d="M61.78,45.16c3.82-4.44,5.92-7.32,5.92-12.69,0-10-7-16.12-16.82-16.12a18.58,18.58,0,0,0-9.37,2.38h0l0,0c-.53.31-3.67,2.15-4.15,2.51l-.75.5a46.54,46.54,0,0,0-7.16,5h0a15.67,15.67,0,0,0-4.74,11.75H34.77l9.33-6c0-.23,0-.45,0-.67,2.65.92,4.11,3.32,4.11,6.52,0,2.57-.86,4.28-2.88,6.7L24.65,69.15v9.11H58.37l9.33-6V63.15H46.29Z"/><path class="cls-3" d="M34,72.26V63.15L54.7,39.09c2-2.41,2.88-4.13,2.88-6.7,0-4.13-2.41-6.93-6.7-6.93-3.35,0-6.77,1.71-6.77,7.08H34c0-10.12,7.4-16.2,16.9-16.2,9.81,0,16.82,6.15,16.82,16.12,0,5.37-2.1,8.25-5.92,12.69l-15.5,18H67.7v9.11Z"/></g></g></svg>