<?xml version="1.0" encoding="utf-8"?>
<!-- Generator: Adobe Illustrator 20.1.0, SVG Export Plug-In . SVG Version: 6.00 Build 0)  -->
<svg version="1.1" id="Layer_1" xmlns="http://www.w3.org/2000/svg" xmlns:xlink="http://www.w3.org/1999/xlink" x="0px" y="0px"
	 viewBox="0 0 41.5 41.5" style="enable-background:new 0 0 41.5 41.5;" xml:space="preserve">
<style type="text/css">
	.st0{fill:#E9262A;}
</style>
<path class="st0" d="M0,0v41.5h41.5V0H0z M29,16.5c0,0.2,0,0.4,0,0.6c0,5.6-4.3,12.1-12.1,12.1c-2.4,0-4.6-0.7-6.5-1.9
	c0.3,0,0.7,0.1,1,0.1c2,0,3.8-0.7,5.3-1.8c-1.9,0-3.4-1.3-4-3c0.3,0,0.5,0.1,0.8,0.1c0.4,0,0.8-0.1,1.1-0.2
	c-1.9-0.4-3.4-2.1-3.4-4.2c0,0,0,0,0-0.1c0.6,0.3,1.2,0.5,1.9,0.5c-1.1-0.8-1.9-2.1-1.9-3.5c0-0.8,0.2-1.5,0.6-2.1
	c2.1,2.6,5.2,4.3,8.8,4.5c-0.1-0.3-0.1-0.6-0.1-1c0-2.4,1.9-4.3,4.3-4.3c1.2,0,2.3,0.5,3.1,1.3c1-0.2,1.9-0.5,2.7-1
	c-0.3,1-1,1.8-1.9,2.4c0.9-0.1,1.7-0.3,2.4-0.7C30.6,15.2,29.9,15.9,29,16.5z"/>
</svg>
